<?xml version="1.0" standalone="no"?> <!DOCTYPE svg PUBLIC "-//W3C//DTD SVG 20010904//EN" "http://www.w3.org/TR/2001/REC-SVG-20010904/DTD/svg10.dtd"> <svg version="1.0" xmlns="http://www.w3.org/2000/svg" width="600.000000pt" height="840.000000pt" viewBox="0 0 600.000000 840.000000" preserveAspectRatio="xMidYMid meet"> <g transform="translate(0.000000,840.000000) scale(0.100000,-0.100000)" fill="none" stroke="#ffffff" stroke-width="50" > <path d="M2934 8389 c-51 -14 -130 -93 -150 -147 -9 -26 -27 -71 -40 -101 -13 -29 -24 -64 -24 -78 0 -13 -22 -67 -49 -121 -77 -154 -96 -225 -96 -367 0 -138 15 -184 91 -282 56 -71 69 -131 61 -275 -8 -126 -40 -212 -99 -264 -77 -67 -154 -76 -403 -45 -61 8 -152 11 -235 8 -120 -5 -143 -9 -210 -36 -195 -80 -369 -253 -450 -451 -43 -104 -53 -171 -48 -317 5 -137 26 -220 88 -343 151 -297 510 -524 888 -561 257 -25 496 19 907 165 349 125 580 144 774 64 155 -65 232 -174 253 -358 14 -131 -3 -233 -54 -318 -67 -112 -231 -202 -340 -188 -120 16 -363 91 -683 211 -305 114 -574 183 -813 206 -67 7 -199 9 -312 6 -179 -4 -203 -7 -295 -34 -117 -35 -206 -71 -294 -121 -204 -113 -417 -327 -511 -512 -133 -263 -187 -607 -145 -921 62 -471 395 -881 830 -1022 125 -41 198 -51 365 -51 343 0 507 89 935 503 61 58 132 125 159 149 161 139 470 183 627 89 66 -39 124 -115 140 -180 18 -77 7 -232 -21 -287 -57 -112 -137 -175 -320 -253 -128 -54 -265 -87 -465 -112 -315 -39 -494 -100 -603 -206 -150 -146 -194 -431 -97 -636 37 -79 101 -149 204 -223 34 -25 109 -93 166 -151 164 -168 204 -270 231 -583 7 -87 19 -71 35 49 22 165 -3 332 -72 482 -49 107 -109 191 -218 308 -56 59 -114 131 -128 158 -36 72 -41 150 -14 207 80 167 226 214 716 230 221 7 285 12 355 30 248 62 444 192 566 375 197 297 215 632 49 925 -131 232 -330 396 -562 462 -109 31 -351 31 -496 0 -192 -42 -396 -153 -662 -361 -241 -188 -296 -227 -365 -260 -71 -34 -81 -35 -180 -36 -103 0 -106 1 -191 42 -152 74 -245 203 -285 393 -25 116 -25 321 0 409 57 209 216 369 431 437 49 15 88 19 205 17 223 -2 380 -42 1020 -262 368 -127 546 -171 715 -178 108 -5 132 -3 228 21 265 67 512 222 653 412 108 146 172 305 198 494 21 148 20 195 -4 346 -58 361 -263 630 -615 806 -210 106 -364 141 -615 141 -244 -1 -410 -33 -645 -125 -302 -119 -427 -150 -610 -150 -113 -1 -142 3 -218 26 -172 51 -262 119 -291 217 -24 80 -2 177 49 218 51 39 90 45 199 30 61 -8 185 -14 311 -14 209 1 210 1 292 31 45 17 107 46 138 65 146 88 292 265 324 394 25 99 43 258 49 442 l8 200 49 68 c60 84 71 116 80 225 13 163 -26 321 -118 480 -8 14 -19 43 -25 65 -32 123 -65 196 -110 246 -69 77 -131 101 -208 78z"/> </g> </svg>